<svg viewBox="0 0 32.9655 33.25" x="0" y="0" fill="none" xmlns="http://www.w3.org/2000/svg"><defs><linearGradient id="paint0_linear_1419_9436" x1="-11.583999999999946" y1="3.915999999999997" x2="45.4380000000001" y2="-3.454999999999984" gradientUnits="userSpaceOnUse" xmlns="http://www.w3.org/2000/svg">
<stop offset="0.146319" stop-color="#00FFE1"/>
<stop offset="0.417737" stop-color="#0D54FF"/>
<stop offset="0.846154" stop-color="#9524C6"/>
</linearGradient></defs><path id="Vector_3" fill-rule="evenodd" clip-rule="evenodd" d="M30.497,2.27c0.292,-0.03 0.586,0.022 0.849,0.149c0.264,0.126 0.488,0.324 0.646,0.57l0.124,0.2l0.172,0.32l0.128,0.275l0.132,0.325c0.499,1.327 0.874,3.637 -0.858,6.263c-0.13,0.195 -0.276,0.377 -0.437,0.547c0.02,0.195 0.004,0.393 -0.048,0.582c-0.315,1.154 -0.712,2.284 -1.187,3.382c-0.873,2 -2.103,4.022 -3.837,5.757c-3.246,3.246 -7.508,4.736 -10.836,5.431c-1.306,0.274 -2.495,0.429 -3.461,0.518l-0.771,0.06l-0.333,0.021l-0.203,1.683l-0.155,1.434l-0.06,0.653l-0.058,0.82c-0.008,0.135 -0.012,0.271 -0.013,0.407c0,0.42 -0.167,0.822 -0.464,1.119c-0.297,0.297 -0.7,0.464 -1.119,0.464c-0.42,0 -0.823,-0.167 -1.12,-0.464c-0.297,-0.297 -0.464,-0.699 -0.464,-1.119c0,-0.166 0.006,-0.356 0.016,-0.57l0.048,-0.692l0.068,-0.775l0.126,-1.222l0.092,-0.795c0.325,-2.742 0.706,-5.424 1.563,-8.059c0.989,-3.04 2.771,-6.933 5.948,-10.109c2.491,-2.493 5.434,-4.135 8.085,-5.21l0.716,-0.28l0.696,-0.253c0.114,-0.04 0.228,-0.079 0.341,-0.116l0.665,-0.215l0.636,-0.19l0.608,-0.17l0.575,-0.147l0.538,-0.126l0.499,-0.111l0.865,-0.167l0.913,-0.144zM29.703,5.589l-0.51,0.098l-0.586,0.125l-0.657,0.156l-0.352,0.091l-0.744,0.206c-0.257,0.076 -0.522,0.159 -0.793,0.247l-0.835,0.285c-2.557,0.925 -5.554,2.439 -8.002,4.886c-2.698,2.697 -4.275,6.08 -5.176,8.851c-0.261,0.803 -0.464,1.547 -0.617,2.198l-0.165,0.731l0.736,-0.068c0.905,-0.095 1.805,-0.236 2.695,-0.422c3.04,-0.635 6.617,-1.945 9.244,-4.573c1.346,-1.344 2.349,-2.94 3.094,-4.6c-1.546,0.824 -3.196,1.561 -4.369,1.953c-0.398,0.132 -0.833,0.101 -1.209,-0.087c-0.375,-0.188 -0.661,-0.517 -0.794,-0.916c-0.132,-0.398 -0.101,-0.833 0.087,-1.209c0.188,-0.375 0.517,-0.661 0.916,-0.794c1.067,-0.354 2.783,-1.129 4.36,-2.003c0.782,-0.433 1.498,-0.874 2.06,-1.279l0.358,-0.269l0.269,-0.223l0.103,-0.095l0.15,-0.151l0.079,-0.099c0.835,-1.264 0.824,-2.344 0.658,-3.039zM6.333,0c0.296,0 0.586,0.083 0.837,0.24c0.252,0.157 0.454,0.381 0.584,0.647l0.076,0.185l0.206,0.598c0.217,0.637 0.568,1.221 1.027,1.712c0.46,0.491 1.019,0.879 1.64,1.138l0.292,0.111l0.599,0.204c0.296,0.102 0.556,0.289 0.746,0.537c0.19,0.249 0.302,0.549 0.322,0.861c0.02,0.313 -0.053,0.624 -0.211,0.895c-0.157,0.271 -0.391,0.489 -0.672,0.627l-0.185,0.076l-0.599,0.206c-0.636,0.217 -1.22,0.567 -1.711,1.027c-0.491,0.46 -0.879,1.018 -1.139,1.639l-0.11,0.293l-0.205,0.599c-0.101,0.296 -0.288,0.556 -0.537,0.746c-0.248,0.19 -0.548,0.302 -0.861,0.322c-0.312,0.02 -0.623,-0.054 -0.894,-0.211c-0.271,-0.157 -0.489,-0.391 -0.627,-0.672l-0.076,-0.185l-0.206,-0.599c-0.217,-0.637 -0.567,-1.22 -1.027,-1.711c-0.46,-0.492 -1.019,-0.88 -1.639,-1.139l-0.293,-0.111l-0.599,-0.204c-0.296,-0.101 -0.556,-0.288 -0.746,-0.537c-0.19,-0.249 -0.302,-0.548 -0.322,-0.861c-0.02,-0.312 0.054,-0.624 0.211,-0.895c0.157,-0.27 0.391,-0.489 0.672,-0.627l0.185,-0.076l0.599,-0.205c0.636,-0.218 1.22,-0.568 1.711,-1.027c0.491,-0.46 0.88,-1.019 1.139,-1.64l0.11,-0.293l0.205,-0.598c0.106,-0.313 0.308,-0.584 0.577,-0.776c0.268,-0.192 0.59,-0.296 0.921,-0.296zM6.333,5.06c-0.375,0.472 -0.802,0.899 -1.273,1.273c0.472,0.375 0.897,0.799 1.273,1.273c0.374,-0.473 0.799,-0.897 1.273,-1.273c-0.472,-0.374 -0.899,-0.801 -1.273,-1.273z" fill="url(#paint0_linear_1419_9436)" xmlns="http://www.w3.org/2000/svg"/></svg>