<svg viewBox="0 0 18.1512 16.4974" x="0" y="0" fill="none" xmlns="http://www.w3.org/2000/svg"><path id="Vector_3" d="M13.2013,1.6472c2.7332,0 4.95,2.224 4.95,4.945v9.905h-11.5492c-2.7341,0 -4.9508,-2.223 -4.9508,-4.945v-3.305h1.65v3.305c0.0024,0.874 0.3511,1.712 0.9697,2.329c0.6187,0.618 1.4569,0.965 2.3311,0.966h9.8992v-8.255c-0.0024,-0.874 -0.351,-1.711 -0.9695,-2.329c-0.6185,-0.617 -1.4565,-0.965 -2.3305,-0.966h-4.95v-1.65zM8.2513,9.8972h-1.65v-1.65h1.65zM13.2013,9.8972h-1.65v-1.65h1.65zM2.9135,0.2612c0.0313,-0.077 0.0849,-0.143 0.1539,-0.19c0.0691,-0.046 0.1505,-0.071 0.2339,-0.071c0.0833,0 0.1647,0.025 0.2338,0.071c0.0691,0.047 0.1227,0.113 0.1539,0.19l0.2096,0.503c0.3502,0.854 1.0145,1.541 1.8562,1.92l0.5924,0.264c0.0757,0.035 0.1398,0.091 0.1848,0.162c0.0449,0.07 0.0688,0.152 0.0688,0.235c0,0.084 -0.0239,0.165 -0.0688,0.236c-0.045,0.07 -0.1091,0.126 -0.1848,0.161l-0.627,0.279c-0.8206,0.368 -1.4735,1.03 -1.8299,1.856l-0.2038,0.467c-0.0317,0.076 -0.0852,0.141 -0.1537,0.187c-0.0686,0.045 -0.1492,0.07 -0.2315,0.07c-0.0824,0 -0.163,-0.025 -0.2315,-0.07c-0.0686,-0.046 -0.1221,-0.111 -0.1538,-0.187l-0.2038,-0.466c-0.3564,-0.826 -1.0096,-1.489 -1.8307,-1.857l-0.627,-0.279c-0.0759,-0.035 -0.1403,-0.091 -0.1854,-0.161c-0.0451,-0.071 -0.0691,-0.153 -0.0691,-0.236c0,-0.084 0.024,-0.166 0.0691,-0.236c0.0451,-0.071 0.1095,-0.127 0.1854,-0.162l0.5924,-0.264c0.8417,-0.378 1.5063,-1.064 1.8571,-1.918z" fill="currentColor" xmlns="http://www.w3.org/2000/svg"/></svg>