<svg viewBox="0 0 18.1512 16.4974" x="0" y="0" fill="none" xmlns="http://www.w3.org/2000/svg"><path id="Vector_5" d="M13.2006,1.6472c2.73,0 4.95,2.224 4.95,4.945v9.905h-11.55c-2.73,0 -4.95,-2.223 -4.95,-4.945v-3.305h1.65v3.305c0,0.874 0.35,1.712 0.97,2.329c0.62,0.618 1.46,0.965 2.33,0.966h9.9v-8.255c0,-0.874 -0.35,-1.711 -0.97,-2.329c-0.62,-0.617 -1.46,-0.965 -2.33,-0.966h-4.95v-1.65zM8.2506,9.8972h-1.65v-1.65h1.65zM13.2006,9.8972h-1.65v-1.65h1.65zM2.9106,0.2612c0.03,-0.077 0.09,-0.143 0.16,-0.19c0.07,-0.046 0.15,-0.071 0.23,-0.071c0.08,0 0.17,0.025 0.23,0.071c0.07,0.047 0.13,0.113 0.16,0.19l0.21,0.503c0.35,0.854 1.01,1.541 1.85,1.92l0.6,0.264c0.07,0.035 0.14,0.091 0.18,0.162c0.05,0.07 0.07,0.152 0.07,0.235c0,0.084 -0.02,0.165 -0.07,0.236c-0.04,0.07 -0.11,0.126 -0.18,0.161l-0.63,0.279c-0.82,0.368 -1.47,1.03 -1.83,1.856l-0.2,0.467c-0.04,0.076 -0.09,0.141 -0.16,0.187c-0.07,0.045 -0.15,0.07 -0.23,0.07c-0.08,0 -0.16,-0.025 -0.23,-0.07c-0.07,-0.046 -0.12,-0.111 -0.15,-0.187l-0.21,-0.466c-0.35,-0.826 -1.01,-1.489 -1.83,-1.857l-0.63,-0.279c-0.07,-0.035 -0.14,-0.091 -0.18,-0.161c-0.05,-0.071 -0.07,-0.153 -0.07,-0.236c0,-0.084 0.02,-0.166 0.07,-0.236c0.04,-0.071 0.11,-0.127 0.18,-0.162l0.6,-0.264c0.84,-0.378 1.5,-1.064 1.85,-1.918z" fill="currentColor" xmlns="http://www.w3.org/2000/svg"/></svg>