<svg viewBox="0 0 34.8357 31.6617" x="0" y="0" fill="none" xmlns="http://www.w3.org/2000/svg"><path id="Vector_3" d="M25.3329,3.1621c5.25,0 9.5,4.267 9.5,9.49v19.01h-22.16c-5.25,0 -9.5,-4.267 -9.5,-9.491v-6.343h3.16v6.343c0.01,1.678 0.68,3.285 1.86,4.471c1.19,1.185 2.8,1.851 4.48,1.853h19v-15.843c-0.01,-1.677 -0.68,-3.285 -1.86,-4.47c-1.19,-1.185 -2.8,-1.852 -4.48,-1.854h-9.5v-3.166zM15.8329,18.9951h-3.16v-3.167h3.16zM25.3329,18.9951h-3.16v-3.167h3.16zM5.5929,0.5021c0.06,-0.149 0.16,-0.276 0.29,-0.365c0.14,-0.089 0.29,-0.137 0.45,-0.137c0.16,0 0.32,0.048 0.45,0.137c0.13,0.089 0.24,0.216 0.3,0.365l0.4,0.965c0.67,1.639 1.95,2.958 3.56,3.685l1.14,0.507c0.14,0.067 0.27,0.174 0.35,0.309c0.09,0.135 0.14,0.292 0.14,0.452c0,0.16 -0.05,0.317 -0.14,0.452c-0.08,0.135 -0.21,0.242 -0.35,0.31l-1.2,0.535c-1.58,0.707 -2.83,1.978 -3.52,3.562l-0.39,0.897c-0.06,0.145 -0.16,0.27 -0.29,0.358c-0.13,0.088 -0.29,0.134 -0.45,0.134c-0.16,0 -0.31,-0.046 -0.44,-0.134c-0.13,-0.088 -0.24,-0.213 -0.3,-0.358l-0.39,-0.895c-0.68,-1.586 -1.94,-2.857 -3.51,-3.564l-1.2,-0.535c-0.15,-0.067 -0.27,-0.175 -0.36,-0.31c-0.09,-0.135 -0.13,-0.292 -0.13,-0.453c0,-0.16 0.04,-0.317 0.13,-0.452c0.09,-0.135 0.21,-0.243 0.36,-0.31l1.13,-0.507c1.62,-0.725 2.89,-2.043 3.57,-3.681z" fill="currentColor" xmlns="http://www.w3.org/2000/svg"/></svg>