<svg viewBox="0 0 21 22" x="0" y="0" fill="none" xmlns="http://www.w3.org/2000/svg"><path id="Vector_16" d="M5.6003,0.732h-3.5c-0.371,0 -0.728,0.155 -0.99,0.43c-0.263,0.275 -0.41,0.648 -0.41,1.037v3.667M8.4003,0.732h4.2M15.4003,0.732h3.5c0.371,0 0.727,0.155 0.99,0.43c0.262,0.275 0.41,0.648 0.41,1.037v3.667M0.7003,8.799v4.4M20.3003,8.799v4.4M0.7003,16.132v3.667c0,0.389 0.147,0.762 0.41,1.037c0.262,0.275 0.619,0.43 0.99,0.43h3.5M20.3003,16.132v3.667c0,0.389 -0.148,0.762 -0.41,1.037c-0.263,0.275 -0.619,0.43 -0.99,0.43h-3.5M5.6003,10.999h9.8M8.4003,21.266h4.2" stroke="black" stroke-width="2" xmlns="http://www.w3.org/2000/svg"/></svg>