<svg viewBox="0 0 119 119" x="0" y="0" fill="none" xmlns="http://www.w3.org/2000/svg"><defs><linearGradient id="paint1_linear_1419_9436" x1="-34.98599999999999" y1="17.084000000000003" x2="156.92000000000007" y2="-7.940999999999974" gradientUnits="userSpaceOnUse" xmlns="http://www.w3.org/2000/svg">
<stop offset="0.146319" stop-color="#00FFE1"/>
<stop offset="0.417737" stop-color="#0D54FF"/>
<stop offset="0.846154" stop-color="#9524C6"/>
</linearGradient></defs><g id="Group 11" xmlns="http://www.w3.org/2000/svg">
<path id="Ellipse 6" d="M60.197,114.984c-11.24,0.142 -22.258,-3.134 -31.596,-9.394c-9.337,-6.26 -16.553,-15.208 -20.692,-25.659c-4.139,-10.452 -5.006,-21.914 -2.486,-32.869c2.52,-10.956 8.308,-20.887 16.597,-28.48c8.29,-7.593 18.69,-12.489 29.824,-14.04c11.134,-1.551 22.476,0.316 32.525,5.354c10.049,5.038 18.331,13.01 23.751,22.859c5.42,9.849 7.72,21.112 6.59,32.297l-8.42,-0.847c0.96,-9.479 -0.99,-19.025 -5.58,-27.372c-4.597,-8.348 -11.616,-15.104 -20.133,-19.374c-8.517,-4.27 -18.13,-5.853 -27.566,-4.538c-9.436,1.315 -18.251,5.464 -25.276,11.9c-7.026,6.435 -11.931,14.852 -14.067,24.137c-2.136,9.285 -1.401,19 2.107,27.858c3.508,8.858 9.624,16.442 17.537,21.747c7.914,5.305 17.252,8.082 26.779,7.962z" fill="#F6F6F6"/>
<path id="Ellipse 5" d="M4.12,56.028c0.703,-11.219 4.798,-21.96 11.741,-30.801c6.944,-8.84 16.408,-15.364 27.141,-18.706c10.733,-3.342 22.228,-3.346 32.963,-0.01c10.735,3.335 20.204,9.853 27.155,18.689c6.95,8.837 11.05,19.575 11.76,30.794c0.71,11.219 -2.01,22.389 -7.78,32.031c-5.78,9.642 -14.354,17.302 -24.582,21.965c-10.229,4.663 -21.632,6.11 -32.701,4.148l1.476,-8.33c9.381,1.662 19.046,0.436 27.715,-3.516c8.669,-3.952 15.934,-10.444 20.832,-18.616c4.9,-8.172 7.2,-17.639 6.59,-27.147c-0.6,-9.509 -4.07,-18.61 -9.962,-26.099c-5.89,-7.489 -13.915,-13.013 -23.013,-15.84c-9.098,-2.827 -18.841,-2.824 -27.937,0.009c-9.097,2.832 -17.119,8.361 -23.003,15.854c-5.885,7.492 -9.355,16.596 -9.952,26.105z" fill="url(#paint1_linear_1419_9436)"/>
</g></svg>