<svg viewBox="0 0 24 20.5" x="0" y="0" fill="none" xmlns="http://www.w3.org/2000/svg"><path id="Vector_16" d="M13.4966,1.4999c0,0.444 -0.19,0.843 -0.5,1.118v1.882h5c0.8,0 1.56,0.316 2.12,0.879c0.57,0.562 0.88,1.325 0.88,2.121v10c0,0.796 -0.31,1.559 -0.88,2.121c-0.56,0.563 -1.32,0.879 -2.12,0.879h-12c-0.79,0 -1.56,-0.316 -2.12,-0.879c-0.56,-0.562 -0.88,-1.325 -0.88,-2.121v-10c0,-0.796 0.32,-1.559 0.88,-2.121c0.56,-0.563 1.33,-0.879 2.12,-0.879h5v-1.882c-0.18,-0.167 -0.32,-0.377 -0.41,-0.613c-0.08,-0.236 -0.11,-0.489 -0.07,-0.736c0.04,-0.247 0.14,-0.481 0.29,-0.68c0.15,-0.198 0.35,-0.356 0.58,-0.458c0.23,-0.102 0.48,-0.146 0.73,-0.126c0.25,0.019 0.49,0.1 0.7,0.236c0.21,0.137 0.38,0.323 0.5,0.543c0.12,0.22 0.18,0.466 0.18,0.716zM5.9966,6.4999c-0.26,0 -0.52,0.106 -0.7,0.293c-0.19,0.188 -0.3,0.442 -0.3,0.707v10c0,0.265 0.11,0.52 0.3,0.707c0.18,0.188 0.44,0.293 0.7,0.293h12c0.27,0 0.52,-0.105 0.71,-0.293c0.19,-0.187 0.29,-0.442 0.29,-0.707v-10c0,-0.265 -0.1,-0.519 -0.29,-0.707c-0.19,-0.187 -0.44,-0.293 -0.71,-0.293zM1.9966,9.4999h-2v6h2zM21.9966,9.4999h2v6h-2zM8.9966,13.9999c0.4,0 0.78,-0.158 1.06,-0.439c0.29,-0.281 0.44,-0.663 0.44,-1.061c0,-0.398 -0.15,-0.779 -0.44,-1.061c-0.28,-0.281 -0.66,-0.439 -1.06,-0.439c-0.39,0 -0.78,0.158 -1.06,0.439c-0.28,0.282 -0.44,0.663 -0.44,1.061c0,0.398 0.16,0.78 0.44,1.061c0.28,0.281 0.67,0.439 1.06,0.439zM14.9966,13.9999c0.4,0 0.78,-0.158 1.06,-0.439c0.29,-0.281 0.44,-0.663 0.44,-1.061c0,-0.398 -0.15,-0.779 -0.44,-1.061c-0.28,-0.281 -0.66,-0.439 -1.06,-0.439c-0.39,0 -0.78,0.158 -1.06,0.439c-0.28,0.282 -0.44,0.663 -0.44,1.061c0,0.398 0.16,0.78 0.44,1.061c0.28,0.281 0.67,0.439 1.06,0.439z" fill="currentColor" xmlns="http://www.w3.org/2000/svg"/></svg>