<svg viewBox="0 0 23.3333 23.3333" x="0" y="0" fill="none" xmlns="http://www.w3.org/2000/svg"><path id="Vector_13" d="M1.848,12.167c0.098,1.926 0.758,3.785 1.908,5.342c1.249,1.691 3.008,2.938 5.017,3.556c2.01,0.619 4.165,0.577 6.149,-0.119c1.984,-0.696 3.693,-2.009 4.876,-3.748l0.531,-0.781h-3.496v-1.334h6v6h-1.333v-3.917l-0.9,1.202c-1.039,1.388 -2.387,2.514 -3.938,3.289c-1.551,0.775 -3.261,1.178 -4.995,1.176c-6,0 -10.893,-4.731 -11.154,-10.666zM11.667,7.504c0.018,0 0.036,0.005 0.051,0.016c0.015,0.01 0.027,0.024 0.034,0.041l0.001,0.004l0.297,0.712c0.544,1.325 1.576,2.391 2.882,2.979l0.001,0.001l0.831,0.369v0.001c0.02,0.009 0.038,0.025 0.05,0.044c0.012,0.019 0.019,0.041 0.019,0.063c0,0.023 -0.007,0.045 -0.019,0.064c-0.012,0.019 -0.031,0.034 -0.051,0.044l-0.879,0.391h-0.001c-1.274,0.572 -2.288,1.6 -2.842,2.882l-0.288,0.66l-0.003,0.007c-0.007,0.017 -0.018,0.031 -0.033,0.041c-0.015,0.01 -0.032,0.015 -0.05,0.015c-0.018,0 -0.036,-0.005 -0.051,-0.015c-0.015,-0.01 -0.026,-0.024 -0.033,-0.041l-0.003,-0.007l-0.287,-0.659c-0.554,-1.282 -1.569,-2.311 -2.844,-2.883h-0.001l-0.882,-0.392h0.001c-0.02,-0.01 -0.038,-0.024 -0.05,-0.043c-0.013,-0.019 -0.019,-0.042 -0.019,-0.065c0,-0.022 0.007,-0.044 0.019,-0.063c0.011,-0.019 0.029,-0.034 0.048,-0.043l0.834,-0.372h0.001c1.307,-0.587 2.338,-1.653 2.883,-2.978l0.001,0.001l0.296,-0.713l0.002,-0.004c0.007,-0.017 0.018,-0.031 0.033,-0.041c0.015,-0.011 0.034,-0.016 0.052,-0.016zM11.666,0.5h0.001c6,0 10.892,4.732 11.153,10.667h-1.335c-0.097,-1.926 -0.758,-3.785 -1.908,-5.342c-1.249,-1.691 -3.007,-2.939 -5.016,-3.557c-2.01,-0.619 -4.166,-0.577 -6.15,0.119c-1.984,0.696 -3.692,2.01 -4.875,3.749l-0.531,0.781h3.495v1.333h-6v-6h1.333v3.916l0.9,-1.2c1.04,-1.387 2.388,-2.514 3.939,-3.289c1.55,-0.775 3.261,-1.178 4.994,-1.177z" fill="currentColor" stroke="currentColor" xmlns="http://www.w3.org/2000/svg"/></svg>