<svg viewBox="0 0 9.697 8.4141" x="0" y="0" fill="none" xmlns="http://www.w3.org/2000/svg"><path id="Vector_4" d="M5.8002,7.747c-0.04,0.03 -0.07,0.07 -0.09,0.12c-0.02,0.05 -0.03,0.1 -0.03,0.15c0,0.05 0.01,0.11 0.03,0.15c0.02,0.05 0.05,0.1 0.08,0.13c0.04,0.04 0.08,0.07 0.13,0.09c0.05,0.02 0.1,0.03 0.15,0.03c0.06,0 0.11,-0.02 0.16,-0.04c0.04,-0.02 0.09,-0.05 0.12,-0.09l3.23,-3.23c0.08,-0.07 0.12,-0.17 0.12,-0.27c0,-0.11 -0.04,-0.2 -0.12,-0.28l-3.23,-3.23c-0.03,-0.04 -0.08,-0.07 -0.12,-0.09c-0.05,-0.02 -0.1,-0.03 -0.16,-0.03c-0.05,0 -0.1,0.01 -0.15,0.03c-0.05,0.01 -0.09,0.04 -0.13,0.08c-0.03,0.04 -0.06,0.08 -0.08,0.13c-0.02,0.05 -0.03,0.1 -0.03,0.15c0,0.05 0.01,0.11 0.03,0.15c0.02,0.05 0.05,0.09 0.09,0.13l2.57,2.57h-5.91c-0.22,0 -0.44,-0.04 -0.65,-0.13c-0.2,-0.08 -0.39,-0.21 -0.54,-0.36c-0.16,-0.16 -0.28,-0.34 -0.37,-0.55c-0.08,-0.2 -0.12,-0.42 -0.12,-0.64v-2.33c0,-0.1 -0.05,-0.2 -0.12,-0.27c-0.07,-0.08 -0.17,-0.12 -0.27,-0.12c-0.11,0 -0.2,0.04 -0.28,0.12c-0.07,0.07 -0.11,0.17 -0.11,0.27v2.33c0,0.32 0.06,0.64 0.19,0.94c0.12,0.3 0.3,0.57 0.53,0.8c0.23,0.22 0.5,0.4 0.8,0.53c0.29,0.12 0.61,0.19 0.94,0.18h5.91z" fill="currentColor" xmlns="http://www.w3.org/2000/svg"/></svg>