<svg viewBox="0 0 18.7823 15.0011" x="0" y="0" fill="none" xmlns="http://www.w3.org/2000/svg"><path id="Vector_24" d="M1.4428,5.8211l-0.722,0.721l-0.721,-0.721l0.721,-0.721zM18.7828,13.9811c0,0.271 -0.108,0.53 -0.299,0.721c-0.192,0.192 -0.451,0.299 -0.721,0.299c-0.271,0 -0.53,-0.107 -0.722,-0.299c-0.191,-0.191 -0.298,-0.45 -0.298,-0.721zM5.8208,11.6421l-5.1,-5.1l1.443,-1.442l5.1,5.1zM0.7208,5.1001l5.1,-5.1l1.443,1.442l-5.1,5.1zM1.4428,4.8011h10.2v2.04h-10.2zM18.7828,11.9411v2.04h-2.04v-2.04zM11.6428,4.8011c1.893,0 3.709,0.752 5.048,2.091c1.339,1.339 2.092,3.155 2.092,5.049h-2.04c0,-1.353 -0.538,-2.65 -1.494,-3.606c-0.957,-0.957 -2.254,-1.494 -3.606,-1.494z" fill="black" xmlns="http://www.w3.org/2000/svg"/></svg>