<svg viewBox="0 0 23.9992 23.9997" x="0" y="0" fill="none" xmlns="http://www.w3.org/2000/svg"><path id="Vector_6" d="M23.98,1.73l-3,19.46c-0.07,0.45 -0.34,0.85 -0.75,1.08c-0.22,0.12 -0.48,0.19 -0.73,0.19c-0.2,0 -0.39,-0.04 -0.58,-0.12l-5.75,-2.39l-2.38,3.57c-0.18,0.32 -0.49,0.48 -0.82,0.48c-0.53,0 -0.97,-0.44 -0.97,-0.98v-4.5c0,-0.34 0.11,-0.66 0.32,-0.92l10.18,-13.1l-13.77,12.39l-4.81,-2.01c-0.52,-0.22 -0.88,-0.71 -0.92,-1.33c-0.03,-0.61 0.26,-1.11 0.76,-1.39l21,-11.96c0.5,-0.29 1.12,-0.26 1.59,0.06c0.47,0.33 0.72,0.9 0.63,1.47z" fill="currentColor" xmlns="http://www.w3.org/2000/svg"/></svg>