<svg viewBox="0 0 22.75 22.75" x="0" y="0" fill="none" xmlns="http://www.w3.org/2000/svg"><g id="Group 21" xmlns="http://www.w3.org/2000/svg">
<circle id="Ellipse 7" cx="11.375" cy="11.375999999999976" r="11.2" fill="#FFC400"/>
<path id="Vector_8" d="M11.375,0c-2.25,0 -4.45,0.667 -6.32,1.917c-1.87,1.25 -3.33,3.026 -4.19,5.105c-0.86,2.078 -1.09,4.366 -0.65,6.572c0.44,2.207 1.53,4.234 3.12,5.824c1.59,1.591 3.61,2.675 5.82,3.113c2.21,0.439 4.49,0.214 6.57,-0.647c2.08,-0.861 3.86,-2.319 5.11,-4.189c1.25,-1.871 1.92,-4.07 1.92,-6.32c-0.01,-3.016 -1.21,-5.907 -3.34,-8.04c-2.13,-2.132 -5.02,-3.332 -8.04,-3.335zM11.375,21c-1.9,0 -3.76,-0.564 -5.35,-1.622c-1.58,-1.058 -2.81,-2.561 -3.54,-4.32c-0.73,-1.758 -0.92,-3.694 -0.55,-5.561c0.37,-1.867 1.29,-3.582 2.63,-4.928c1.35,-1.346 3.07,-2.263 4.93,-2.634c1.87,-0.371 3.8,-0.181 5.56,0.548c1.76,0.728 3.27,1.962 4.32,3.545c1.06,1.582 1.63,3.443 1.63,5.347c-0.01,2.552 -1.02,4.998 -2.83,6.803c-1.8,1.804 -4.25,2.819 -6.8,2.822zM6.125,9.187c0,-0.259 0.08,-0.513 0.22,-0.729c0.15,-0.216 0.35,-0.384 0.59,-0.483c0.24,-0.099 0.5,-0.125 0.76,-0.075c0.25,0.051 0.49,0.176 0.67,0.359c0.18,0.184 0.31,0.418 0.36,0.672c0.05,0.255 0.02,0.519 -0.07,0.759c-0.1,0.24 -0.27,0.445 -0.49,0.589c-0.21,0.144 -0.47,0.221 -0.73,0.221c-0.35,0 -0.68,-0.138 -0.93,-0.384c-0.24,-0.247 -0.38,-0.58 -0.38,-0.929zM16.625,9.187c0,0.26 -0.08,0.514 -0.22,0.73c-0.15,0.216 -0.35,0.384 -0.59,0.483c-0.24,0.099 -0.5,0.125 -0.76,0.075c-0.25,-0.051 -0.49,-0.176 -0.67,-0.359c-0.18,-0.184 -0.31,-0.418 -0.36,-0.672c-0.05,-0.255 -0.02,-0.519 0.07,-0.759c0.1,-0.24 0.27,-0.445 0.49,-0.589c0.21,-0.144 0.47,-0.221 0.73,-0.221c0.35,0 0.68,0.138 0.93,0.384c0.24,0.247 0.38,0.58 0.38,0.928zM16.505,14.437c-1.12,1.946 -2.99,3.063 -5.13,3.063c-2.14,0 -4.01,-1.116 -5.13,-3.063c-0.07,-0.099 -0.11,-0.21 -0.13,-0.327c-0.02,-0.116 -0.01,-0.235 0.02,-0.35c0.02,-0.115 0.08,-0.222 0.15,-0.317c0.07,-0.094 0.16,-0.173 0.26,-0.232c0.1,-0.06 0.21,-0.097 0.33,-0.112c0.12,-0.014 0.24,-0.004 0.35,0.029c0.11,0.033 0.22,0.088 0.31,0.163c0.09,0.075 0.17,0.167 0.22,0.272c0.82,1.412 2.1,2.187 3.62,2.187c1.52,0 2.8,-0.777 3.62,-2.187c0.11,-0.202 0.3,-0.348 0.53,-0.408c0.22,-0.06 0.46,-0.029 0.66,0.087c0.2,0.116 0.35,0.307 0.41,0.531c0.06,0.225 0.03,0.463 -0.09,0.664z" fill="black"/>
</g></svg>