<svg viewBox="0 0 19.2613 19.6875" x="0" y="0" fill="none" xmlns="http://www.w3.org/2000/svg"><path id="Vector_5" d="M10.43,0.4765c0.1,-0.168 0.24,-0.302 0.42,-0.385c0.17,-0.083 0.36,-0.11 0.55,-0.079l0.3,0.05c0.57,0.094 1.1,0.306 1.58,0.623c0.48,0.316 0.88,0.73 1.19,1.213c0.3,0.484 0.5,1.027 0.58,1.593c0.09,0.566 0.05,1.144 -0.11,1.694l-0.57,2.002h0.83c0.63,0 1.25,0.147 1.82,0.43c0.56,0.283 1.05,0.693 1.43,1.199c0.38,0.505 0.64,1.092 0.75,1.714c0.11,0.621 0.07,1.26 -0.1,1.866l-1.42,4.824c-0.21,0.712 -0.65,1.338 -1.24,1.782c-0.6,0.445 -1.32,0.685 -2.06,0.685h-6.15c-0.98,0 -1.93,-0.307 -2.73,-0.877c-0.2,0.272 -0.47,0.493 -0.77,0.646c-0.3,0.152 -0.64,0.231 -0.98,0.231h-1.56c-0.58,0 -1.14,-0.23 -1.55,-0.641c-0.41,-0.41 -0.64,-0.966 -0.64,-1.546v-8.125c0,-1.208 0.98,-2.188 2.19,-2.188h4.27c0.05,0 0.11,-0.015 0.16,-0.043c0.04,-0.027 0.08,-0.067 0.11,-0.116zM5.94,16.7485l0.49,0.413c0.51,0.421 1.14,0.651 1.8,0.651h6.15c0.34,0 0.66,-0.109 0.94,-0.311c0.27,-0.202 0.46,-0.486 0.56,-0.81l1.42,-4.824c0.09,-0.326 0.11,-0.67 0.05,-1.005c-0.06,-0.335 -0.2,-0.651 -0.4,-0.923c-0.2,-0.272 -0.47,-0.493 -0.77,-0.645c-0.31,-0.153 -0.64,-0.232 -0.98,-0.232h-2.08c-0.14,0 -0.28,-0.034 -0.41,-0.098c-0.13,-0.065 -0.25,-0.159 -0.33,-0.275c-0.09,-0.116 -0.15,-0.25 -0.18,-0.393c-0.02,-0.142 -0.02,-0.289 0.02,-0.429l0.92,-3.197c0.15,-0.542 0.09,-1.122 -0.17,-1.62c-0.26,-0.499 -0.71,-0.876 -1.24,-1.055l-3.37,5.956c-0.19,0.337 -0.46,0.618 -0.8,0.813c-0.33,0.195 -0.71,0.298 -1.1,0.298h-0.52zM4.06,9.0625h-1.87c-0.09,0 -0.16,0.033 -0.22,0.092c-0.06,0.058 -0.09,0.138 -0.09,0.221v8.125c0,0.172 0.14,0.312 0.31,0.312h1.56c0.08,0 0.16,-0.033 0.22,-0.091c0.06,-0.059 0.09,-0.138 0.09,-0.221z" fill="black" xmlns="http://www.w3.org/2000/svg"/></svg>