<svg viewBox="0 0 19.2497 13.75" x="0" y="0" fill="none" xmlns="http://www.w3.org/2000/svg"><g id="Group 16" xmlns="http://www.w3.org/2000/svg">
<path id="Vector_9" d="M15.899,3.094c-0.126,1.747 -1.423,3.093 -2.836,3.093c-1.414,0 -2.712,-1.345 -2.836,-3.093c-0.129,-1.818 1.133,-3.094 2.836,-3.094c1.703,0 2.965,1.309 2.836,3.094z" stroke="#050505" stroke-width="1.6" stroke-linecap="round" stroke-linejoin="round"/>
<path id="Vector_10" d="M13.062,8.937c-2.8,0 -5.493,1.391 -6.167,4.1c-0.09,0.359 0.135,0.713 0.503,0.713h11.329c0.368,0 0.592,-0.354 0.503,-0.713c-0.674,-2.752 -3.367,-4.1 -6.168,-4.1z" stroke="#050505" stroke-width="1.6" stroke-miterlimit="10"/>
<path id="Vector_11" d="M7.219,3.865c-0.101,1.395 -1.148,2.494 -2.277,2.494c-1.13,0 -2.179,-1.098 -2.278,-2.494c-0.102,-1.452 0.917,-2.49 2.278,-2.49c1.36,0 2.38,1.064 2.277,2.49z" stroke="#050505" stroke-width="1.6" stroke-linecap="round" stroke-linejoin="round"/>
<path id="Vector_12" d="M7.477,9.023c-0.776,-0.355 -1.63,-0.492 -2.535,-0.492c-2.235,0 -4.387,1.111 -4.927,3.274c-0.07,0.287 0.109,0.57 0.403,0.57h4.825" stroke="#050505" stroke-width="1.6" stroke-miterlimit="10" stroke-linecap="round"/>
</g></svg>