<svg viewBox="0 0 175.0845 58" x="0" y="0" fill="none" xmlns="http://www.w3.org/2000/svg"><g id="Frame 2106261307" xmlns="http://www.w3.org/2000/svg">
<g id="Frame 2106261305">
<g id="mingcute:notification-line">
<g id="Group">
<path id="Vector" fill-rule="evenodd" clip-rule="evenodd" d="M6.264,25.239c0,-2.3272 0.93,-4.559 2.57,-6.2046c1.65,-1.6456 3.88,-2.57 6.21,-2.57c2.33,0 4.56,0.9244 6.2,2.57c1.65,1.6456 2.57,3.8774 2.57,6.2046v4.7183l2.29,4.5678c0.1,0.2102 0.15,0.4439 0.14,0.6787c-0.01,0.2348 -0.08,0.463 -0.2,0.663c-0.13,0.1999 -0.3,0.365 -0.51,0.4794c-0.2,0.1145 -0.43,0.1745 -0.67,0.1745h-4.97c-0.27,1.0758 -0.9,2.0286 -1.78,2.7088c-0.88,0.6801 -1.96,1.0492 -3.07,1.0492c-1.11,0 -2.19,-0.3691 -3.07,-1.0492c-0.88,-0.6802 -1.51,-1.633 -1.79,-2.7088h-4.97c-0.23,0 -0.46,-0.06 -0.67,-0.1745c-0.2,-0.1144 -0.38,-0.2795 -0.5,-0.4794c-0.12,-0.2 -0.19,-0.4282 -0.2,-0.663c-0.02,-0.2348 0.03,-0.4685 0.14,-0.6787l2.28,-4.5678zM12.874,36.5207c0.22,0.3811 0.53,0.6975 0.91,0.9176c0.39,0.22 0.82,0.3358 1.26,0.3358c0.44,0 0.87,-0.1158 1.25,-0.3358c0.38,-0.2201 0.7,-0.5365 0.92,-0.9176zM15.044,18.9714c-1.66,0 -3.26,0.6603 -4.43,1.8357c-1.18,1.1754 -1.84,2.7696 -1.84,4.4319v4.7183c0,0.389 -0.09,0.7726 -0.26,1.1206l-1.47,2.9358h16l-1.47,-2.9358c-0.17,-0.3479 -0.26,-0.7315 -0.26,-1.1206v-4.7183c0,-1.6623 -0.66,-3.2565 -1.84,-4.4319c-1.18,-1.1754 -2.77,-1.8357 -4.43,-1.8357z" fill="#0D54FF"/>
</g>
</g>
<g id="Group 28">
<circle id="Ellipse 13" cx="59.35400000000004" cy="21.1406" r="2.18309" fill="#050505"/>
<circle id="Ellipse 16" cx="59.35400000000004" cy="29" r="2.18309" fill="#050505"/>
<circle id="Ellipse 19" cx="59.35400000000004" cy="36.8589" r="2.18309" fill="#050505"/>
<circle id="Ellipse 14" cx="68.08400000000006" cy="21.1406" r="2.18309" fill="#050505"/>
<circle id="Ellipse 17" cx="68.08400000000006" cy="29" r="2.18309" fill="#050505"/>
<circle id="Ellipse 20" cx="68.08400000000006" cy="36.8589" r="2.18309" fill="#050505"/>
<circle id="Ellipse 15" cx="76.81400000000008" cy="21.1406" r="2.18309" fill="#050505"/>
<circle id="Ellipse 18" cx="76.81400000000008" cy="29" r="2.18309" fill="#050505"/>
<circle id="Ellipse 21" cx="76.81400000000008" cy="36.8589" r="2.18309" fill="#050505"/>
</g>
</g>
<path id="Vector 46" d="M112.004,0v58" stroke="#C6C6C6"/>
<g id="line-md:person">
<g id="Group_2">
<path id="Vector_2" d="M160.044,20.2251c2.08,0 3.76,1.6797 3.76,3.7606c0,2.0808 -1.68,3.7605 -3.76,3.7605c-2.08,0 -3.76,-1.6797 -3.76,-3.7605c0,-2.0809 1.68,-3.7606 3.76,-3.7606z" stroke="#0D54FF" stroke-width="2.50704" stroke-linecap="round" stroke-linejoin="round"/>
<path id="Vector_3" d="M160.044,31.5068c5.01,0 8.77,2.5071 8.77,3.7606v2.507h-17.55v-2.507c0,-1.2535 3.76,-3.7606 8.78,-3.7606z" stroke="#0D54FF" stroke-width="2.50704" stroke-linecap="round" stroke-linejoin="round"/>
</g>
</g>
</g></svg>